<svg xmlns="http://www.w3.org/2000/svg" width="157" height="140" viewBox="0 0 157 140">
  <g id="Grupo_9730" data-name="Grupo 9730" transform="translate(-0.473 -0.388)">
    <g id="Grupo_9686" data-name="Grupo 9686" transform="translate(46.526 42.947)">
      <g id="Grupo_9656" data-name="Grupo 9656" transform="translate(10.737 31.017)">
        <path id="Trazado_25440" data-name="Trazado 25440" d="M317.281,82.316a1.206,1.206,0,0,1-.355-.054L297.837,76.3A1.193,1.193,0,0,1,297,75.158V68h2.386v6.281l16.7,5.219V73.965h2.386v7.158a1.193,1.193,0,0,1-1.193,1.193Z" transform="translate(-297 -68)" fill="#2d2d2e"/>
      </g>
      <g id="Grupo_9657" data-name="Grupo 9657" transform="translate(73.964 0)">
        <rect id="Rectángulo_2506" data-name="Rectángulo 2506" width="2" height="52" transform="translate(-0.018 0.441)" fill="#2d2d2e"/>
      </g>
      <g id="Grupo_9658" data-name="Grupo 9658" transform="translate(3.579 21.474)">
        <rect id="Rectángulo_2507" data-name="Rectángulo 2507" width="2" height="10" transform="translate(0.368 -0.032)" fill="#2d2d2e"/>
      </g>
      <g id="Grupo_9659" data-name="Grupo 9659" transform="translate(0 26.245)">
        <path id="Trazado_25441" data-name="Trazado 25441" d="M288,69.965l3.579-1.193V64H288Z" transform="translate(-288 -64)" fill="#a8a7a5"/>
      </g>
      <g id="Grupo_9660" data-name="Grupo 9660" transform="translate(5.965 28.631)">
        <path id="Trazado_25442" data-name="Trazado 25442" d="M293,68.386l57.263,17.895V76.737L293,66Z" transform="translate(-293 -66)" fill="#a8a7a5"/>
      </g>
      <g id="Grupo_9661" data-name="Grupo 9661" transform="translate(5.965 26.245)">
        <path id="Trazado_25443" data-name="Trazado 25443" d="M293,66.386l57.263,10.737V64H293Z" transform="translate(-293 -64)" fill="#e8e6e4"/>
      </g>
      <g id="Grupo_9662" data-name="Grupo 9662" transform="translate(0 20.281)">
        <path id="Trazado_25444" data-name="Trazado 25444" d="M288,59v5.965h3.579V60.193Z" transform="translate(-288 -59)" fill="#e8e6e4"/>
      </g>
      <g id="Grupo_9663" data-name="Grupo 9663" transform="translate(5.965 3.579)">
        <path id="Trazado_25445" data-name="Trazado 25445" d="M350.263,45,293,62.895v2.386l57.263-10.737Z" transform="translate(-293 -45)" fill="#e8e6e4"/>
      </g>
      <g id="Grupo_9664" data-name="Grupo 9664" transform="translate(5.965 13.123)">
        <path id="Trazado_25446" data-name="Trazado 25446" d="M293,63.737v2.386h57.263V53Z" transform="translate(-293 -53)" fill="#f7f7f7"/>
      </g>
      <g id="Grupo_9666" data-name="Grupo 9666" transform="translate(63.228 0)">
        <g id="Grupo_9665" data-name="Grupo 9665">
          <path id="Trazado_25447" data-name="Trazado 25447" d="M351.737,94.491,341,90.912V45.579L351.737,42Z" transform="translate(-341 -42)" fill="#ff7552"/>
        </g>
      </g>
      <g id="Grupo_9667" data-name="Grupo 9667" transform="translate(69.193 25.052)">
        <rect id="Rectángulo_2508" data-name="Rectángulo 2508" width="3" height="2" transform="translate(-0.246 0.389)" fill="#2d2d2e"/>
      </g>
      <g id="Grupo_9668" data-name="Grupo 9668" transform="translate(69.193 20.281)">
        <rect id="Rectángulo_2509" data-name="Rectángulo 2509" width="3" height="2" transform="translate(-0.246 0.161)" fill="#2d2d2e"/>
      </g>
      <g id="Grupo_9669" data-name="Grupo 9669" transform="translate(69.193 29.824)">
        <rect id="Rectángulo_2510" data-name="Rectángulo 2510" width="3" height="3" transform="translate(-0.246 -0.383)" fill="#2d2d2e"/>
      </g>
    </g>
    <g id="Grupo_9687" data-name="Grupo 9687" transform="translate(16.702)">
      <g id="Elipse_608" data-name="Elipse 608" transform="translate(-0.229 0.388)" fill="#c1f7f0" stroke="#01c1a9" stroke-width="2">
        <ellipse cx="70.5" cy="70" rx="70.5" ry="70" stroke="none"/>
        <ellipse cx="70.5" cy="70" rx="69.5" ry="69" fill="none"/>
      </g>
    </g>
    <path id="Trazado_25456" data-name="Trazado 25456" d="M33.457,0A33.457,33.457,0,1,1,0,33.457,33.457,33.457,0,0,1,33.457,0Z" transform="translate(53.684 36.982)" fill="#98e6dc"/>
    <g id="Grupo_9727" data-name="Grupo 9727" transform="translate(48.912 31.017)">
      <g id="Grupo_9712" data-name="Grupo 9712" transform="translate(33.403 64.421)">
        <rect id="Rectángulo_2539" data-name="Rectángulo 2539" width="9" height="10" transform="translate(0.158 -0.05)" fill="#a8a7a5"/>
      </g>
      <g id="Grupo_9714" data-name="Grupo 9714" transform="translate(0 73.965)">
        <rect id="Rectángulo_2540" data-name="Rectángulo 2540" width="77" height="2" transform="translate(-0.439 0.407)" fill="#191919"/>
      </g>
      <g id="Grupo_9715" data-name="Grupo 9715" transform="translate(14.316 0)">
        <rect id="Rectángulo_2541" data-name="Rectángulo 2541" width="47" height="62" transform="translate(0.245 0.371)" fill="#191919"/>
      </g>
      <g id="Grupo_9716" data-name="Grupo 9716" transform="translate(16.702 2.386)">
        <rect id="Rectángulo_2542" data-name="Rectángulo 2542" width="43" height="57" rx="2" transform="translate(-0.141 -0.015)" fill="#f7f7f7"/>
      </g>
      <g id="Grupo_9725" data-name="Grupo 9725" transform="translate(27.524 14.123)">
        <g id="Grupo_9724" data-name="Grupo 9724">
          <g id="Grupo_9721" data-name="Grupo 9721" transform="translate(11.967)">
            <path id="Trazado_25459" data-name="Trazado 25459" d="M577,44v3.211a8.362,8.362,0,0,1,0,15.119V65.54h9.573V44Z" transform="translate(-577 -44)" fill="#a8a7a5"/>
          </g>
          <g id="Grupo_9722" data-name="Grupo 9722" transform="translate(0 2.393)">
            <path id="Trazado_25460" data-name="Trazado 25460" d="M575.377,46a8.377,8.377,0,1,0,3.59,15.936V46.817A8.331,8.331,0,0,0,575.377,46Z" transform="translate(-567 -46)" fill="#f0a228"/>
          </g>
          <g id="Grupo_9723" data-name="Grupo 9723" transform="translate(11.967 3.211)">
            <path id="Trazado_25461" data-name="Trazado 25461" d="M581.787,54.242A8.368,8.368,0,0,0,577,46.683V61.8A8.368,8.368,0,0,0,581.787,54.242Z" transform="translate(-577 -46.683)" fill="#e8e6e4"/>
          </g>
        </g>
      </g>
      <g id="Grupo_9726" data-name="Grupo 9726" transform="translate(33.403 62.035)">
        <rect id="Rectángulo_2546" data-name="Rectángulo 2546" width="9" height="2" transform="translate(0.158 0.336)" fill="#2d2d2e"/>
      </g>
    </g>
    <g id="Grupo_9728" data-name="Grupo 9728" transform="translate(0 77.543)">
      <ellipse id="Elipse_621" data-name="Elipse 621" cx="26" cy="26.5" rx="26" ry="26.5" transform="translate(0.473 -0.155)" fill="#00223d"/>
      <g id="Grupo_8419" data-name="Grupo 8419" transform="translate(13.143 13.627)">
        <g id="Grupo_8418" data-name="Grupo 8418">
          <path id="Trazado_25216" data-name="Trazado 25216" d="M451.916,216.969a12.887,12.887,0,1,0-.42-18.215A12.891,12.891,0,0,0,451.916,216.969Z" transform="translate(-447.931 -194.765)" fill="#00455b"/>
          <path id="Trazado_25217" data-name="Trazado 25217" d="M451.121,220.99a12.892,12.892,0,0,0,22.687-12.255Z" transform="translate(-449.579 -201.98)" fill="#08253f"/>
        </g>
      </g>
      <g id="Grupo_8422" data-name="Grupo 8422" transform="translate(2.678 3.163)">
        <g id="Grupo_8420" data-name="Grupo 8420">
          <path id="Trazado_25218" data-name="Trazado 25218" d="M435.359,178a23.35,23.35,0,1,0,32.754,4.19A23.349,23.349,0,0,0,435.359,178Zm13.982,3.034a6.134,6.134,0,1,1,3.348,8A6.136,6.136,0,0,1,449.341,181.039Zm.6,30.878a6.133,6.133,0,1,1-3.348-8A6.132,6.132,0,0,1,449.942,211.917Zm-8.266-14.361a6.134,6.134,0,1,1-6.9-5.256A6.133,6.133,0,0,1,441.676,197.556Zm20.385,14.985a6.133,6.133,0,1,1,1.1-8.6A6.134,6.134,0,0,1,462.061,212.54Zm-13.536-15.2a1.409,1.409,0,1,1,1.977.255A1.408,1.408,0,0,1,448.526,197.338Zm-3.8-7.22a6.134,6.134,0,1,1,1.1-8.6A6.133,6.133,0,0,1,444.724,190.119Zm19.782,10.535a6.134,6.134,0,1,1,5.256-6.9A6.132,6.132,0,0,1,464.506,200.654Z" transform="translate(-426.289 -173.126)" fill="#f1a939"/>
        </g>
        <g id="Grupo_8421" data-name="Grupo 8421" transform="translate(9.143 0.003)">
          <path id="Trazado_25219" data-name="Trazado 25219" d="M477.88,182.2a23.349,23.349,0,0,0-32.683-4.243l1.865,2.41a6.13,6.13,0,0,1,7.5,9.7l4.062,5.254a1.4,1.4,0,0,1,1.713,2.216l4.063,5.253a6.13,6.13,0,0,1,7.5,9.7l1.865,2.412A23.347,23.347,0,0,0,477.88,182.2Zm-18.77-1.155a6.133,6.133,0,1,1,3.348,8A6.132,6.132,0,0,1,459.11,181.045Zm15.164,19.615a6.134,6.134,0,1,1,5.255-6.9A6.132,6.132,0,0,1,474.274,200.66Z" transform="translate(-445.197 -173.133)" fill="#f5bd79"/>
        </g>
      </g>
    </g>
  </g>
</svg>
