<svg xmlns="http://www.w3.org/2000/svg" width="157" height="141" viewBox="0 0 157 141">
  <g id="Grupo_9729" data-name="Grupo 9729" transform="translate(-0.473)">
    <g id="Grupo_9670" data-name="Grupo 9670" transform="translate(46.526 42.947)">
      <g id="Grupo_9656" data-name="Grupo 9656" transform="translate(10.737 31.017)">
        <path id="Trazado_25440" data-name="Trazado 25440" d="M317.281,82.316a1.206,1.206,0,0,1-.355-.054L297.837,76.3A1.193,1.193,0,0,1,297,75.158V68h2.386v6.281l16.7,5.219V73.965h2.386v7.158a1.193,1.193,0,0,1-1.193,1.193Z" transform="translate(-297 -68)" fill="#2d2d2e"/>
      </g>
      <g id="Grupo_9657" data-name="Grupo 9657" transform="translate(73.964 0)">
        <rect id="Rectángulo_2506" data-name="Rectángulo 2506" width="2" height="52" transform="translate(-0.018 0.053)" fill="#2d2d2e"/>
      </g>
      <g id="Grupo_9658" data-name="Grupo 9658" transform="translate(3.579 21.474)">
        <rect id="Rectángulo_2507" data-name="Rectángulo 2507" width="2" height="10" transform="translate(0.368 -0.421)" fill="#2d2d2e"/>
      </g>
      <g id="Grupo_9659" data-name="Grupo 9659" transform="translate(0 26.245)">
        <path id="Trazado_25441" data-name="Trazado 25441" d="M288,69.965l3.579-1.193V64H288Z" transform="translate(-288 -64)" fill="#a8a7a5"/>
      </g>
      <g id="Grupo_9660" data-name="Grupo 9660" transform="translate(5.965 28.631)">
        <path id="Trazado_25442" data-name="Trazado 25442" d="M293,68.386l57.263,17.895V76.737L293,66Z" transform="translate(-293 -66)" fill="#a8a7a5"/>
      </g>
      <g id="Grupo_9661" data-name="Grupo 9661" transform="translate(5.965 26.245)">
        <path id="Trazado_25443" data-name="Trazado 25443" d="M293,66.386l57.263,10.737V64H293Z" transform="translate(-293 -64)" fill="#e8e6e4"/>
      </g>
      <g id="Grupo_9662" data-name="Grupo 9662" transform="translate(0 20.281)">
        <path id="Trazado_25444" data-name="Trazado 25444" d="M288,59v5.965h3.579V60.193Z" transform="translate(-288 -59)" fill="#e8e6e4"/>
      </g>
      <g id="Grupo_9663" data-name="Grupo 9663" transform="translate(5.965 3.579)">
        <path id="Trazado_25445" data-name="Trazado 25445" d="M350.263,45,293,62.895v2.386l57.263-10.737Z" transform="translate(-293 -45)" fill="#e8e6e4"/>
      </g>
      <g id="Grupo_9664" data-name="Grupo 9664" transform="translate(5.965 13.123)">
        <path id="Trazado_25446" data-name="Trazado 25446" d="M293,63.737v2.386h57.263V53Z" transform="translate(-293 -53)" fill="#f7f7f7"/>
      </g>
      <g id="Grupo_9666" data-name="Grupo 9666" transform="translate(63.228 0)">
        <g id="Grupo_9665" data-name="Grupo 9665">
          <path id="Trazado_25447" data-name="Trazado 25447" d="M351.737,94.491,341,90.912V45.579L351.737,42Z" transform="translate(-341 -42)" fill="#ff7552"/>
        </g>
      </g>
      <g id="Grupo_9667" data-name="Grupo 9667" transform="translate(69.193 25.052)">
        <rect id="Rectángulo_2508" data-name="Rectángulo 2508" width="3" height="2" transform="translate(-0.246 0.001)" fill="#2d2d2e"/>
      </g>
      <g id="Grupo_9668" data-name="Grupo 9668" transform="translate(69.193 20.281)">
        <rect id="Rectángulo_2509" data-name="Rectángulo 2509" width="3" height="3" transform="translate(-0.246 -0.228)" fill="#2d2d2e"/>
      </g>
      <g id="Grupo_9669" data-name="Grupo 9669" transform="translate(69.193 29.824)">
        <rect id="Rectángulo_2510" data-name="Rectángulo 2510" width="3" height="2" transform="translate(-0.246 0.229)" fill="#2d2d2e"/>
      </g>
    </g>
    <g id="Grupo_9538" data-name="Grupo 9538" transform="translate(16.702)">
      <g id="Elipse_608" data-name="Elipse 608" transform="translate(-0.229)" fill="#c1f7f0" stroke="#01c1a9" stroke-width="2">
        <circle cx="70.5" cy="70.5" r="70.5" stroke="none"/>
        <circle cx="70.5" cy="70.5" r="69.5" fill="none"/>
      </g>
    </g>
    <circle id="Elipse_614" data-name="Elipse 614" cx="26" cy="26" r="26" transform="translate(0.473 78)" fill="#00223d"/>
    <g id="Grupo_8423" data-name="Grupo 8423" transform="translate(2.678 80.706)">
      <g id="Grupo_8419" data-name="Grupo 8419" transform="translate(10.465 10.464)">
        <g id="Grupo_8418" data-name="Grupo 8418">
          <path id="Trazado_25216" data-name="Trazado 25216" d="M451.916,216.969a12.887,12.887,0,1,0-.42-18.215A12.891,12.891,0,0,0,451.916,216.969Z" transform="translate(-447.931 -194.765)" fill="#00455b"/>
          <path id="Trazado_25217" data-name="Trazado 25217" d="M451.121,220.99a12.892,12.892,0,0,0,22.687-12.255Z" transform="translate(-449.579 -201.98)" fill="#08253f"/>
        </g>
      </g>
      <g id="Grupo_8422" data-name="Grupo 8422" transform="translate(0 0)">
        <g id="Grupo_8420" data-name="Grupo 8420">
          <path id="Trazado_25218" data-name="Trazado 25218" d="M435.359,178a23.35,23.35,0,1,0,32.754,4.19A23.349,23.349,0,0,0,435.359,178Zm13.982,3.034a6.134,6.134,0,1,1,3.348,8A6.136,6.136,0,0,1,449.341,181.039Zm.6,30.878a6.133,6.133,0,1,1-3.348-8A6.132,6.132,0,0,1,449.942,211.917Zm-8.266-14.361a6.134,6.134,0,1,1-6.9-5.256A6.133,6.133,0,0,1,441.676,197.556Zm20.385,14.985a6.133,6.133,0,1,1,1.1-8.6A6.134,6.134,0,0,1,462.061,212.54Zm-13.536-15.2a1.409,1.409,0,1,1,1.977.255A1.408,1.408,0,0,1,448.526,197.338Zm-3.8-7.22a6.134,6.134,0,1,1,1.1-8.6A6.133,6.133,0,0,1,444.724,190.119Zm19.782,10.535a6.134,6.134,0,1,1,5.256-6.9A6.132,6.132,0,0,1,464.506,200.654Z" transform="translate(-426.289 -173.126)" fill="#f1a939"/>
        </g>
        <g id="Grupo_8421" data-name="Grupo 8421" transform="translate(9.143 0.003)">
          <path id="Trazado_25219" data-name="Trazado 25219" d="M477.88,182.2a23.349,23.349,0,0,0-32.683-4.243l1.865,2.41a6.13,6.13,0,0,1,7.5,9.7l4.062,5.254a1.4,1.4,0,0,1,1.713,2.216l4.063,5.253a6.13,6.13,0,0,1,7.5,9.7l1.865,2.412A23.347,23.347,0,0,0,477.88,182.2Zm-18.77-1.155a6.133,6.133,0,1,1,3.348,8A6.132,6.132,0,0,1,459.11,181.045Zm15.164,19.615a6.134,6.134,0,1,1,5.255-6.9A6.132,6.132,0,0,1,474.274,200.66Z" transform="translate(-445.197 -173.133)" fill="#f5bd79"/>
        </g>
      </g>
    </g>
    <path id="Trazado_25236" data-name="Trazado 25236" d="M33.457,0A33.457,33.457,0,1,1,0,33.457,33.457,33.457,0,0,1,33.457,0Z" transform="translate(53.684 36.982)" fill="#98e6dc"/>
    <g id="Grupo_9685" data-name="Grupo 9685" transform="translate(36.982 34.596)">
      <g id="Grupo_9671" data-name="Grupo 9671" transform="translate(13.169 38.052)">
        <path id="Trazado_25448" data-name="Trazado 25448" d="M321.874,85.558a1.48,1.48,0,0,1-.436-.066l-23.411-7.316a1.463,1.463,0,0,1-1.027-1.4V68h2.926v7.7l20.485,6.4V75.316h2.926V84.1a1.463,1.463,0,0,1-1.463,1.463Z" transform="translate(-297 -68)" fill="#2d2d2e"/>
      </g>
      <g id="Grupo_9672" data-name="Grupo 9672" transform="translate(90.666 0)">
        <rect id="Rectángulo_2511" data-name="Rectángulo 2511" width="3" height="64" transform="translate(-0.175 0.404)" fill="#2d2d2e"/>
      </g>
      <g id="Grupo_9673" data-name="Grupo 9673" transform="translate(3.579 26.245)">
        <rect id="Rectángulo_2512" data-name="Rectángulo 2512" width="4" height="12" transform="translate(-0.088 0.158)" fill="#2d2d2e"/>
      </g>
      <g id="Grupo_9674" data-name="Grupo 9674" transform="translate(0 32.199)">
        <path id="Trazado_25449" data-name="Trazado 25449" d="M288,71.316l4.39-1.463V64H288Z" transform="translate(-288 -64)" fill="#a8a7a5"/>
      </g>
      <g id="Grupo_9675" data-name="Grupo 9675" transform="translate(7.316 35.125)">
        <path id="Trazado_25450" data-name="Trazado 25450" d="M293,68.926l70.233,21.948V79.169L293,66Z" transform="translate(-293 -66)" fill="#a8a7a5"/>
      </g>
      <g id="Grupo_9676" data-name="Grupo 9676" transform="translate(7.316 32.199)">
        <path id="Trazado_25451" data-name="Trazado 25451" d="M293,66.926,363.233,80.1V64H293Z" transform="translate(-293 -64)" fill="#e8e6e4"/>
      </g>
      <g id="Grupo_9677" data-name="Grupo 9677" transform="translate(0 24.883)">
        <path id="Trazado_25452" data-name="Trazado 25452" d="M288,59v7.316h4.39V60.463Z" transform="translate(-288 -59)" fill="#e8e6e4"/>
      </g>
      <g id="Grupo_9678" data-name="Grupo 9678" transform="translate(7.316 4.398)">
        <path id="Trazado_25453" data-name="Trazado 25453" d="M363.233,45,293,66.948v2.926l70.233-13.169Z" transform="translate(-293 -45)" fill="#e8e6e4"/>
      </g>
      <g id="Grupo_9679" data-name="Grupo 9679" transform="translate(7.316 16.104)">
        <path id="Trazado_25454" data-name="Trazado 25454" d="M293,66.169V69.1h70.233V53Z" transform="translate(-293 -53)" fill="#f7f7f7"/>
      </g>
      <g id="Grupo_9681" data-name="Grupo 9681" transform="translate(77.549 0.009)">
        <g id="Grupo_9680" data-name="Grupo 9680">
          <path id="Trazado_25455" data-name="Trazado 25455" d="M354.169,106.38,341,101.991V46.39L354.169,42Z" transform="translate(-341 -42)" fill="#f0a228"/>
        </g>
      </g>
      <g id="Grupo_9682" data-name="Grupo 9682" transform="translate(84.701 29.824)">
        <rect id="Rectángulo_2513" data-name="Rectángulo 2513" width="4" height="5" transform="translate(-0.211 -0.421)" fill="#2d2d2e"/>
      </g>
      <g id="Grupo_9683" data-name="Grupo 9683" transform="translate(84.701 25.052)">
        <rect id="Rectángulo_2514" data-name="Rectángulo 2514" width="4" height="2" transform="translate(-0.211 0.351)" fill="#2d2d2e"/>
      </g>
      <g id="Grupo_9684" data-name="Grupo 9684" transform="translate(84.701 36.982)">
        <rect id="Rectángulo_2515" data-name="Rectángulo 2515" width="4" height="2" transform="translate(-0.211 0.421)" fill="#2d2d2e"/>
      </g>
    </g>
  </g>
</svg>
