<svg xmlns="http://www.w3.org/2000/svg" width="1140" height="1033" viewBox="0 0 1140 1033">
  <g id="Grupo_9770" data-name="Grupo 9770" transform="translate(-390 -1664)">
    <rect id="Rectángulo_2470" data-name="Rectángulo 2470" width="1140" height="1033" transform="translate(390 1664)" fill="#00223d"/>
    <path id="Trazado_25404" data-name="Trazado 25404" d="M471.018,181.088s-4.365-23.57-26.627-26.19-95.378-7.64-95.378-7.64-10.912,1.528-14.4,15.933c-6.112,12.878-26.41,52.382-26.41,52.382s-2.837,6.766.219,22.7l-2.837,3.929-9.6-6.548-1.091-16.587-46.925-3.275s51.555-5.918,50-97.681c0,0,2.135-65.127-54.983-75.27a113.06,113.06,0,0,0-22.815-.679,30.572,30.572,0,0,0-15.608-4.471c-21.026,0-38.946,23.18-45.82,55.682l-42.806-5.157-.151.149c-.085,0-.168-.01-.253-.01-24.743,0-44.8,34.973-44.8,78.115,0,42.8,19.745,77.542,44.216,78.091a3.528,3.528,0,0,0,.585.026c12.146-.495,6.274,5.378,6.274,5.378l-25.09,12.278v6.939s-9.782-5.135-11.03,11.044c-8.722,3.369-23.668,8.708-23.668,8.708S37.46,275.587,37.46,298.008c0,14.948,15.327,22.6,23.945,15.035l7.016-8.629,23.871-4.692s-1.255,1.489,6.921,2.023c1.771,10.143,8.093,68.265,8.093,68.265a34.271,34.271,0,0,0,2.633,36.665c.654,14.647,1.241,15.786,1.241,15.786l78.555-5.132-.484,3.622s-9.386-1.09-13.1,4.8-2.664,16.21-2.664,16.21L124.125,474.75s-7.114-1.2-7.989,4.475c-4.365,1.529-32.521,18.989-32.521,18.989s-.654,18.334,12.223,15.06c10.039-7.858,30.555-23.79,30.555-23.79a7.745,7.745,0,0,0,4.678-4.12c10.382-8.1,48.732-31.968,48.732-31.968s1.589,2.041,6.828,2.041c6.548-.656,5.488-.46,5.488-.46s6.734,11.153,13.282,11.371,16.96-1.632,16.96-1.632l5.085,44.41-34.084,5.629-7.6,15.1-3.491,1.747-.437,9.6-3.493,1.093s-3.93.436-6.112,8.075,4.574,16.739,4.574,16.739l-26.312,54.1h88.6l11.93-70.184,20.077-6.113s-1.963,17.024,16.807,15.715c5.455-1.31,7.3-1.57,7.3-1.57l58.47,62.151h32.882L279.824,508.909l-32.738-1.964.655-47.8,6.547-1.309-1.747-52.819L313,394.542,304.7,316.625l13.752-18.551,47.362,27.719s17.024,3.273,29.028,2.4S465.78,327.1,465.78,327.1s17.679-1.308,16.151-21.17S471.018,181.088,471.018,181.088Z" transform="translate(364.928 2073.601)" fill="#191919"/>
    <path id="Trazado_25405" data-name="Trazado 25405" d="M218.014,553.161l-45.194,1.852,44.646-5.884-46.146,2.53,34.014-5.7-32.665,1.633,23.913-4.56-22.492.954c-3.131,2.618-4.97,7.262-4.467,12.339a14.531,14.531,0,0,0,5.966,10.713l4.83-10.029,27.549-2.441ZM189.9,101.369l-.121-.007c-.139-.007-.274-.005-.411-.008C189.544,101.356,189.721,101.357,189.9,101.369ZM290.268,545.453c-.482-4.858-4.487-8.44-8.938-8s-7.677,4.74-7.195,9.6,4.481,8.444,8.937,8S290.749,550.313,290.268,545.453Zm25.894-4.465c-.665-6.735-5.558-11.927-11.487-12.741l-.975-9.826-.06.005c.025-.034.053-.07.049-.1-.033-.346-1.736-.509-4.777-.513-1.816-2.339-10.469-12.418-10.495-12.676-.051-.505-14.371-.957-33.936.289l-4.365-44.033c.837-.091,1.433-.153,1.721-.182,9.824-.973,16.57-13.971,14.937-30.463-1.13-11.4-5.89-20.639-11.964-24.977L312.676,394.7l-80.107,4.438-122.6,23.241,78.555-5.132a33.281,33.281,0,0,0-1.234,3.484c-2.912.18-5.575.354-6.417.431-4.553.451-7.909,5.845-8.533,12.889a20.827,20.827,0,0,0-.371,5.275,21.788,21.788,0,0,0,.312,2.555c-12.971,8.529-40.686,27-49.367,32.787a6.51,6.51,0,0,0-6.259.309,5.876,5.876,0,0,0-2.325,3.408c-7.531,4.077-30.566,17.357-31.1,17.721-3.728,2.539-4.012,8.618-.632,13.577,2.811,4.126,7.263,6.168,10.827,5.281a9.146,9.146,0,0,0,3.172-1.229,7.6,7.6,0,0,0,1.22-.921c.513-.476,19.2-16.081,25.587-21.3a5.821,5.821,0,0,0,3.876-.923,6.385,6.385,0,0,0,2.58-5.309c8.829-5.8,38.859-25.537,48.732-31.968a9.794,9.794,0,0,0,1.808,1.267,13.736,13.736,0,0,1-4.123-4.589,6.7,6.7,0,0,0,1.188.855,7.948,7.948,0,0,1-1.481-1.371,25.713,25.713,0,0,1-2.888-9.76,27.366,27.366,0,0,1,.186-7c1.151-3.785,3.415-6.464,6.154-6.734a4.865,4.865,0,0,1,2.809.6c2.7,1.811,4.741,6.072,5.021,11.229.391,7.127-2.717,13.245-6.944,13.664.882-.088,1.277-.041,2.628-.175,4.2-.416,7.29-6.5,6.9-13.582-.362-6.641-3.654-11.807-7.524-12.085a26.337,26.337,0,0,0-3.287.017.234.234,0,0,0,.05,0c-.058,0-.119,0-.176.009-1.886.187-3.548,1.515-4.777,3.556,1.451-4.323,4.128-7.3,7.452-7.632a6.737,6.737,0,0,1,3.8.794c3.723,2.4,6.7,8.056,7.375,14.9.939,9.455-2.867,17.574-8.494,18.132.555-.056,3.5-.277,6.642-.513,2.457,4.508,5.59,7.947,9.046,9.779a24.715,24.715,0,0,1-7.6-8.711,12.82,12.82,0,0,0,3.166,2.346,15.109,15.109,0,0,1-3.709-3.481c3.212-.243,6.405-.486,7.272-.572,5.6-.555,9.377-8.625,8.445-18.024-.874-8.816-5.579-15.667-10.775-16.032-.166-.012-3.5.173-7.09.388,2.013-3.373,4.739-5.594,7.885-6.009a8.554,8.554,0,0,1,4.964.89c4.844,3.019,8.663,10.378,9.45,19.406,1.1,12.477-4,23.384-11.391,24.363,1.536-.206,2.234-.146,4.6-.458,7.341-.97,12.408-11.812,11.318-24.217-1.016-11.627-7.084-20.5-13.887-20.764a46.257,46.257,0,0,0-5.765.222.481.481,0,0,0,.09,0c-.1.009-.208.013-.314.027-2.856.378-5.364,2.254-7.312,5.122,2.613-7.055,7.167-11.848,12.749-12.4a11.82,11.82,0,0,1,6.655,1.4c6.535,4.214,11.756,14.136,12.947,26.14,1.644,16.595-5.034,30.84-14.909,31.819.778-.076,6.952-.752,14.5-1.58.937-.913,10.662-10.133,22.257-11.156,3.507-.118,6.133,2.2,6.284,4.619l.085.872c-.149-2.421-2.591-2.88-6.1-2.764-12.2,1.078-22.62,8.519-22.62,8.519l4.325,43.664c-19.425,2.618-33.373,5.872-33.325,6.375.022.217-4.736,8.734-6.94,12.849l7.372-11.964-6.523,13.19q-.743.129-1.416.257l-.22.015-.015.03c-3.708.7-5.774,1.277-5.736,1.665,0,.032.038.062.069.09l-.058.007,1.083,10.937c-.253.021-.463.04-.616.055a9.147,9.147,0,0,0-4.462,1.727l17.735-2.717-.057,0c13.889-1,33.825-2.392,36.239-2.63-6.07.6-10.384,7.176-9.64,14.686s6.268,13.109,12.335,12.507c-1.208.121-6.482.477-13.159.912,4.329-.282,8.07-.532,10.486-.7-4.719-.592-6.419-2.48-6.419-2.48l-6.09.224-1.234-2.094,5.246-1.426-5.8.493-1.373-2.333,5.855-1.095-6.369.224-1.64-2.786-1.676,3.356-.556,1.119-1.045,2.093-.439.882-.965,1.935-.675,1.353-18.9,55.685H199.28l12.277.307H243.5l5.208-60.9,19.264-1.909c1.683-.166,2.7-3.838,2.262-8.2a18.269,18.269,0,0,0-.8-3.889l1.4-.167c-.086-6.97,4.406-12.967,10.677-14.25a12.142,12.142,0,0,1,1.265-.2,11.907,11.907,0,0,1,1.3-.058c.149,0,.291.015.441.023.281.01.561.024.838.055.175.019.351.05.523.077.241.039.484.077.719.127.189.042.378.091.565.141.214.057.43.116.641.186.194.063.391.134.585.206s.378.149.565.228c.206.09.409.181.609.281.163.08.319.167.478.253.218.118.433.237.64.367.122.078.241.16.361.241.235.155.47.313.7.486.053.042.1.088.157.128a14.759,14.759,0,0,1,4.356,5.648l.008.019c.167.381.318.771.459,1.17,0,.011.007.021.01.033.137.4.261.81.366,1.227a15.718,15.718,0,0,1,.431,2.362c.793,8.02-4.52,15.11-11.872,15.839,1.651-.164,4.9-.823,8.338-1.589-.259.125-.419.184-.419.184L351.9,621.042h5.535l-60.9-63.787c1.916-1.718,4.2-4.824,5.023-10.216,0,0,.017.016.038.042s.031.031.046.047.036.035.062.062l.088.091c.03.033.064.066.1.1l.159.164a.183.183,0,0,1,.028.029c.159.161.354.36.588.6.035.038.077.078.116.118.1.1.2.207.316.322a.371.371,0,0,0,.027.029c3.542,3.6,59.507,59.255,72.492,72.4h12.757l-72.7-74.436A15.2,15.2,0,0,0,316.162,540.988Zm-202.1-60.882a9.75,9.75,0,0,0,.16,2.154L83.738,499.33ZM82.549,502.177l31.682-19.863a11.218,11.218,0,0,0,.543,1.929Zm89.941-59.245c.062.286.143.559.222.836L122.5,477.073Zm.236.885c.123.435.251.866.4,1.273l-51.1,33.519Zm-45.718,43.789c-2.34,1.594-5.957.359-8.085-2.76s-1.945-6.939.4-8.535a4.054,4.054,0,0,1,2.129-.667l-1.194.8c-2.173,1.477-2.34,5.02-.368,7.91s5.323,4.035,7.492,2.557c0,0,.265-.173.706-.463A3.962,3.962,0,0,1,127.009,487.606Zm-5.214-7.485,51.351-34.984c.176.47.36.929.57,1.358Zm51.96-34.468c-.094-.246-.2-.481-.283-.737l.037-.025C173.589,445.147,173.667,445.4,173.755,445.653Zm-.254-.787a.043.043,0,0,1-.005-.017l-.038.024c-.139-.419-.258-.858-.37-1.3l.019-.014c0-.015-.007-.029-.011-.044l-.019.013a20.4,20.4,0,0,1-.411-2.126A27.032,27.032,0,0,0,173.5,444.866Zm7.031-19.079a.417.417,0,0,0,.046.014c-.049-.013-.1-.023-.146-.034A.988.988,0,0,1,180.531,425.787Zm18.926-11.609a.646.646,0,0,0,.078.021c-.084-.019-.171-.033-.255-.05C199.341,414.16,199.411,414.166,199.457,414.178Zm33.136,96.915,3.353,11.357c-1.553.159-3.1.319-4.619.48Zm-4.869.369,2.578,11.577q-2.219.235-4.383.473Zm-5.005.416,2.169,11.748c-1.306.143-2.586.285-3.854.429Zm-4.511.605,1.908,11.676q-2.006.229-3.953.457Zm-4.536.372,1.555,11.871q-1.868.221-3.669.438Zm-2.89,12.4q-1.848.223-3.607.446l3.152-12.552Zm-4.191.521q-2.088.262-4.052.522l4.83-12.642Zm-4.495.581q-1.835.244-3.556.479l6.041-13.117Zm-3.888.526c-1.258.173-2.475.345-3.63.513l7.354-13.307Zm-3.945.559c-1.089.159-2.135.316-3.127.47l8.124-13.666Zm-3.389.509c-.929.145-1.8.285-2.636.423l8.2-13.312Zm3.277-12.126-6.075,12.576c-.652.108-1.283.214-1.876.318Zm40.339,44.684c-3.84.383-7.348-2.949-8.14-7.561.723,3.959,3.757,6.806,7.07,6.476,3.535-.35,6.045-4.178,5.61-8.551s-3.647-7.632-7.179-7.281c-3.314.328-5.728,3.713-5.661,7.736-.13-4.676,2.656-8.63,6.5-9.013,4.059-.4,7.755,3.346,8.253,8.37S238.552,560.113,234.492,560.514Zm-10.86-29.607c-15.588,1.544-29.714,3.26-40.177,4.813.155-1.678,17.919-4.78,39.964-6.965s40.074-2.632,40.552-1.017C253.409,528.272,239.218,529.362,223.632,530.907ZM200.189,413.762c-.034,0-.071-.007-.1-.009-.121-.007-.242,0-.362-.007C199.881,413.748,200.035,413.748,200.189,413.762ZM128.255,270.005,138.2,370.37l77.7-14.728L204.428,239.891Zm10.73,93.806-9.11-91.908,68.461-27.065,10.311,104.031Zm-36.626-121.6c-16.1-10.991-28.193-36.539-29.877-67.335-2.344-42.829,16.34-79.589,41.726-82.106a29.283,29.283,0,0,1,16.944,3.631,42.9,42.9,0,0,1,3.656,2.737L156.2,100.7c-.042.291-.082.584-.123.876l-17.552,1.059c.149.156.3.316.446.474l16.8.7c-.082.641-.146,1.289-.219,1.936l-13,1.558c.068.091.139.179.209.269l12.543.523q-.2,2.124-.332,4.282l-7.963,1.421c.171.279.338.558.506.842l7.332.2q-.16,3.55-.146,7.171l-2.984.754c.1.232.219.458.321.693l2.678.157c.029,1.947.084,3.9.192,5.874a136.235,136.235,0,0,0,6.379,34.9c1.748,34.435-10.084,64.857-28.039,76.585l15.8-6.191c11.209-10.335,18.606-30.231,18.758-52.973,3.51,7.329,14.262,26.8,31.755,33.181l6.516-2.552A48,48,0,0,1,193.894,208c-1.351-.732-2.678-1.566-3.986-2.449-17.032-12.985-29.663-40.73-31.478-73.931-2.621-47.932,18.285-89.071,46.694-91.886A32.77,32.77,0,0,1,224.094,43.8a47.806,47.806,0,0,1,4.086,3.06l31.237,2.267-27.079,1.634c.17.174.335.355.5.531L264.87,52.63l-28.023,3.36c.078.1.158.2.236.3l35.5,1.481-30.744,5.486q.286.468.565.942l36.774,1L247.1,73.291c.117.262.245.513.358.778l38.514,2.269-34.151,9.37c.163.525.332,1.05.492,1.58l35.582,1.6L254.361,94.96c.08.353.159.713.238,1.069l33.484,1.859L255.63,101.1a143.367,143.367,0,0,1,2.161,18.181c2.622,47.933-18.283,89.071-46.7,91.886,5.921-.586,33.13,2.934,42.2,2.035,28.241-2.8,49.023-43.692,46.417-91.336-2.443-44.667-24.572-79.41-50.6-81.273-1.706-.123-33.932-2.564-42.227-3.071.051,0,.1.014.158.018a30.884,30.884,0,0,0-5.441.054c-21.042,2.084-37.958,25.207-44.257,56.53a27.433,27.433,0,0,0-3.834-.582c-1.524-.108-30.319-2.291-37.729-2.745.1.007.2.027.3.034-.557-.046-1.116-.063-1.675-.076.459.005.915.008,1.373.041l-.36-.023c-.36-.021-.725-.019-1.091-.02a27.683,27.683,0,0,0-3.269.107c-25.384,2.517-44.068,39.277-41.723,82.106C71.125,205.739,84.711,232.547,102.358,242.215Zm96.431-81.936c.062-.005.12,0,.181-.009,10.881-1.079,18.863-17.3,17.827-36.239S206.1,90.623,195.223,91.7a14.092,14.092,0,0,0-8.639,4.52,13.51,13.51,0,0,1,7.764-3.715c10.769-1.067,20.332,13.261,21.356,32.006C216.708,142.828,209.184,158.573,198.79,160.279ZM90.542,289.649c.311-.031.452-.015.931-.063,1.489-.147,2.583-2.3,2.448-4.815-.128-2.354-1.3-4.185-2.668-4.283a9.115,9.115,0,0,0-1.165.007H90.1c-.022,0-.043,0-.062,0-1.5.149-2.6,2.317-2.46,4.843.1,1.933.9,3.514,1.946,4.085a5.2,5.2,0,0,1-1.765-3.972c-.137-2.527.965-4.7,2.467-4.843a1.714,1.714,0,0,1,.992.212A5.161,5.161,0,0,1,93,284.8C93.142,287.331,92.039,289.5,90.542,289.649Zm2.2-17.753-.056-.006c-.07,0-.138,0-.208,0C92.57,271.888,92.659,271.888,92.744,271.9Zm15.8-71.408c.054-.005.108,0,.163-.01,9.719-.963,16.852-15.459,15.928-32.38s-9.557-29.852-19.279-28.889a12.594,12.594,0,0,0-7.717,4.041,12.069,12.069,0,0,1,6.936-3.32c9.622-.954,18.17,11.851,19.085,28.6C124.556,184.9,117.833,198.964,108.546,200.488Zm6.513,2.676c10.826-1.073,18.792-16.746,17.792-35.006-.938-17.119-9.42-30.436-19.4-31.149a67.224,67.224,0,0,0-8.471.046l.135.009c-.156.01-.309.009-.464.025-7.35.728-13.377,8.162-16.221,18.559a33.522,33.522,0,0,0-3.175,16.839c.355,6.467,2.257,12.144,5.024,16.085,2.568,6.278,6.313,11.064,10.64,13.433-3.377-2.3-6.323-6.124-8.557-10.947a12.624,12.624,0,0,0,2.736,2.064,14.694,14.694,0,0,1-3.157-3c-.068-.153-.141-.3-.206-.452a19.072,19.072,0,0,1-1.54-2.115,32.877,32.877,0,0,1-4-14.5c-.7-12.763,4.869-23.719,12.435-24.467a8.738,8.738,0,0,1,5.031,1.073c4.837,3.243,8.488,10.877,8.992,20.11.7,12.764-4.869,23.72-12.433,24.468,1.574-.155,2.285-.07,4.7-.31,7.52-.746,13.056-11.637,12.362-24.324-.651-11.894-6.545-21.145-13.476-21.642a46.823,46.823,0,0,0-5.886.034l.089.005c-.106.007-.21.005-.317.016a10.024,10.024,0,0,0-6.088,3.16c3.224-7.559,8.365-12.673,14.394-13.271a12.552,12.552,0,0,1,7.207,1.525c6.985,4.653,12.254,15.654,12.981,28.965,1.005,18.37-7.012,34.138-17.9,35.217C110.562,203.388,111.583,203.509,115.059,203.164ZM100.594,148.24c.029.009.055.021.084.027-.087-.021-.179-.039-.263-.061C100.484,148.218,100.548,148.231,100.594,148.24Zm7.965-10.882c.1.017.2.033.269.051.043.011.084.03.129.042C108.823,137.416,108.689,137.389,108.56,137.358Zm97.519,25.916c12.116-1.2,21.029-18.74,19.91-39.176-1.048-19.159-10.539-34.061-21.7-34.861a75.345,75.345,0,0,0-9.482.053l.142.009c-.172.011-.34.009-.511.027-8.221.815-14.96,9.123-18.142,20.748a37.505,37.505,0,0,0-3.561,18.868c.4,7.233,2.522,13.586,5.615,18,2.874,7.029,7.067,12.385,11.912,15.039-3.781-2.582-7.087-6.858-9.587-12.262a14.238,14.238,0,0,0,3.074,2.321c-5.37-3.667-9.4-12.187-9.964-22.457-.781-14.284,5.45-26.545,13.915-27.385a9.755,9.755,0,0,1,5.628,1.2c5.418,3.629,9.5,12.173,10.066,22.506.781,14.283-5.45,26.542-13.914,27.383,1.762-.176,2.557-.081,5.259-.35,8.417-.833,14.611-13.021,13.833-27.219-.726-13.311-7.325-23.664-15.08-24.221a52.427,52.427,0,0,0-6.588.037l.1.006c-.12.007-.236.007-.358.018a11.19,11.19,0,0,0-6.789,3.495c3.608-8.434,9.351-14.143,16.087-14.809a14.042,14.042,0,0,1,8.058,1.7c7.82,5.2,13.721,17.517,14.532,32.419,1.126,20.557-7.841,38.2-20.028,39.411C201.046,163.525,202.189,163.66,206.078,163.274Zm-16.186-61.465a.818.818,0,0,0,.092.03c-.1-.025-.194-.045-.291-.068C189.765,101.783,189.84,101.794,189.892,101.808Zm8.933-12.177c.1.017.208.035.278.054.045.011.088.032.131.044C199.1,89.692,198.961,89.664,198.825,89.632Zm-88.936,46.412c.227,0,.454,0,.679.022l-.153-.011C110.243,136.044,110.064,136.048,109.889,136.044Zm48.256,28.124c-2.185-39.92-22.55-70.44-45.49-68.166-6.7.665-12.875,4.072-18.214,9.532,4.893-4.464,10.422-7.242,16.371-7.832,22.708-2.251,42.87,27.96,45.03,67.477,2.113,38.62-13.748,71.816-35.664,75.408.127-.011.254-.008.385-.02C143.5,238.294,160.326,204.09,158.146,164.168ZM96.373,180.1c.554-.056.8-.026,1.649-.109,2.64-.261,4.579-4.08,4.337-8.532-.227-4.172-2.3-7.415-4.726-7.59a16.786,16.786,0,0,0-2.067.011l.033,0c-.038,0-.074,0-.111.006-2.654.262-4.607,4.106-4.359,8.582.183,3.425,1.606,6.227,3.448,7.238-1.682-1.15-2.946-3.821-3.123-7.039-.243-4.476,1.71-8.32,4.364-8.582a3.06,3.06,0,0,1,1.765.377c1.7,1.138,2.976,3.815,3.153,7.054C100.98,175.993,99.027,179.835,96.373,180.1Zm74.84,22.637s-4.217,13.518-6.1,19.1,1.818,3.972,1.818,3.972,12.981-5.5,17.308-7.351,1.231-4.93,1.231-4.93l-10.587-12.3C172.166,198.3,171.213,202.735,171.213,202.735Zm5.849,3.784,6.472,7.517s1.889,1.881-.752,3.012-10.578,4.493-10.578,4.493-2.262.986-1.111-2.428,4-11.928,4-11.928S175.4,204.726,177.062,206.519Zm8.419-69.567c.624-.062.908-.029,1.867-.125,2.983-.295,5.177-4.615,4.9-9.649-.258-4.719-2.6-8.389-5.348-8.587a18.948,18.948,0,0,0-2.335.013l.036,0c-.04,0-.082,0-.125.007-3,.3-5.21,4.644-4.934,9.708.214,3.875,1.818,7.044,3.905,8.188-1.9-1.3-3.334-4.321-3.533-7.962-.276-5.064,1.932-9.41,4.934-9.708a3.457,3.457,0,0,1,2,.427c1.92,1.285,3.365,4.315,3.568,7.978C190.691,132.307,188.482,136.654,185.482,136.952Zm.078-18.263c.022.005.051.009.069.015a.157.157,0,0,1,.031.011C185.628,118.7,185.594,118.7,185.56,118.689Zm-2.551-64.674c5.472-4.995,11.658-8.1,18.317-8.766,25.413-2.52,47.975,31.291,50.394,75.516,2.364,43.218-15.386,80.368-39.912,84.391.143-.012.285-.009.43-.023,25.672-2.544,44.5-40.824,42.058-85.5S229.063,40.8,203.388,43.347C195.89,44.09,188.981,47.9,183.009,54.014Zm23.8-13.186c-.456-.027-.917-.021-1.377-.027.6.008,1.191.009,1.779.051ZM201.054,88.18c-.057,0-.121-.006-.173-.011-.194-.012-.394-.008-.588-.012C200.546,88.162,200.8,88.163,201.054,88.18ZM155.26,313.5a42.773,42.773,0,0,0-5.382.03l.085.007c-.1.006-.2.006-.295.015-4.661.462-8.484,5.175-10.291,11.767a21.285,21.285,0,0,0-2.027,10.719,19.872,19.872,0,0,0,3.219,10.261c1.629,3.962,3.991,6.99,6.73,8.49a16.9,16.9,0,0,1-5.443-6.96,8.09,8.09,0,0,0,1.745,1.318c-3.048-2.081-5.335-6.918-5.658-12.747-.44-8.108,3.1-15.066,7.9-15.542a5.53,5.53,0,0,1,3.195.683c3.076,2.059,5.392,6.909,5.713,12.774.443,8.106-3.091,15.065-7.9,15.541,1-.1,1.452-.044,2.986-.2,4.776-.473,8.293-7.39,7.849-15.451-.413-7.555-4.156-13.432-8.557-13.748a29.614,29.614,0,0,0-3.74.021l.06,0c-.069,0-.136,0-.205.009a6.348,6.348,0,0,0-3.842,1.985c2.045-4.784,5.3-8.026,9.119-8.406a7.979,7.979,0,0,1,4.595.979c4.429,2.963,7.768,9.943,8.228,18.387.639,11.669-4.451,21.685-11.366,22.371,1.44-.143,2.088-.065,4.3-.285,6.874-.683,11.932-10.638,11.3-22.237C166.985,322.416,161.6,313.957,155.26,313.5Zm-8.168,7.135a.536.536,0,0,0,.052.018c-.056-.014-.11-.026-.167-.038C147.018,320.625,147.062,320.63,147.092,320.638Zm5.065-6.911c.06.011.119.019.162.031.022.005.046.017.07.023C152.314,313.761,152.237,313.745,152.157,313.727Zm-.843,21.2c-.278-5.091-2.946-8.973-5.961-8.677s-5.228,4.668-4.949,9.759,2.947,8.973,5.958,8.675S151.592,340.015,151.314,334.926Zm132.872-61.3c-7.331-.034-12.557,7.35-11.677,16.49s7.537,16.574,14.864,16.609,12.558-7.352,11.679-16.493S291.515,273.66,284.186,273.627Zm.754,29.245c-5.11-.022-9.749-5.2-10.362-11.574s3.032-11.519,8.139-11.495,9.749,5.206,10.362,11.576S290.049,302.893,284.939,302.872ZM147.093,320.391l-.067-.006c-.079,0-.157,0-.232,0C146.894,320.382,147,320.381,147.093,320.391Zm40.934,1c-.073,0-.149,0-.219,0,.094,0,.19,0,.284.008Zm-1.529,9.167a10.118,10.118,0,0,0-1.243.007h.019a.448.448,0,0,0-.065,0c-1.6.158-2.772,2.47-2.625,5.167.111,2.059.966,3.747,2.075,4.355a5.551,5.551,0,0,1-1.879-4.236c-.146-2.694,1.03-5.007,2.626-5.166a1.869,1.869,0,0,1,1.062.227,5.5,5.5,0,0,1,1.9,4.246c.149,2.693-1.03,5.005-2.624,5.163.332-.033.481-.015.992-.064,1.589-.159,2.756-2.458,2.61-5.135C189.205,332.62,187.961,330.667,186.5,330.562Zm86.306-89.34c-5.731-.026-9.82,5.747-9.13,12.893s5.891,12.962,11.621,12.985,9.82-5.747,9.13-12.895S278.533,241.247,272.8,241.221Zm.588,22.867c-4-.019-7.621-4.07-8.1-9.049s2.37-9.006,6.362-8.987,7.622,4.069,8.1,9.049S277.387,264.1,273.392,264.088ZM190,321.465a28.433,28.433,0,0,0-3.5.022l.054,0c-.065,0-.127,0-.192.009-4.5.446-7.819,6.97-7.4,14.571.316,5.814,2.726,10.572,5.859,12.286-2.857-1.949-5-6.483-5.3-11.949-.417-7.6,2.9-14.123,7.4-14.57a5.213,5.213,0,0,1,3,.641c2.88,1.93,5.053,6.476,5.356,11.972.413,7.6-2.9,14.124-7.4,14.571.937-.092,1.359-.043,2.8-.185,4.478-.444,7.774-6.928,7.358-14.483C197.639,327.272,194.128,321.762,190,321.465Zm-2.018.146c.038.007.08.014.1.022s.033.013.049.017C188.084,321.635,188.032,321.624,187.981,321.61ZM153.427,312.9l-.1-.005c-.111-.007-.224-.006-.335-.007C153.138,312.894,153.284,312.894,153.427,312.9ZM94.606,267.409c-.724.03-1.256.057-1.524.081-4.519.448-7.841,5.773-8.5,12.743-.115.547-.2,1.115-.27,1.692l-29.46,9.74,29.622-11.521c.068-.7.157-1.378.281-2.036-7.933,2.865-19.111,6.964-23.975,8.728A21.362,21.362,0,0,0,47.634,284.1c-9.3.922-14.624,8.529-13.662,18.242s8.891,17.315,18.188,16.394c5.634-.56,10.4-4.73,13.07-10.087,4.912-1.526,18.261-5.835,26.311-8.423a9.239,9.239,0,0,0,1.07.683,10.589,10.589,0,0,1-.944-.724l.054-.016c-.22-.156-.427-.35-.64-.527a15.737,15.737,0,0,1-2.563-3.289,6.908,6.908,0,0,0,1.158.822,10.19,10.19,0,0,1-3.215-4.035,25.681,25.681,0,0,1-1.469-4.745,21.244,21.244,0,0,1-.289-2.425c-.389-7.127,2.721-13.244,6.945-13.663a4.875,4.875,0,0,1,2.81.6c2.705,1.81,4.74,6.071,5.021,11.229.389,7.126-2.717,13.243-6.941,13.662.878-.086,1.275-.04,2.623-.174,4.2-.416,7.29-6.5,6.9-13.582-.364-6.642-3.655-11.807-7.524-12.085a26.224,26.224,0,0,0-3.286.017.31.31,0,0,0,.05,0c-.058,0-.12,0-.178.009-1.887.186-3.549,1.516-4.778,3.559,1.451-4.327,4.129-7.3,7.457-7.634a6.627,6.627,0,0,1,3.533.679c.13.069.258.13.386.2,3.664,2.447,6.581,8.044,7.25,14.807.938,9.456-2.867,17.574-8.494,18.133.177-.019.726-.043,1.525-.073l6.964,70.265a33.579,33.579,0,0,0-3.013,16.476c.408,7.492,2.9,13.921,6.409,17.8l1.227,12.356-.861-11.965a12.9,12.9,0,0,0,3.026,2.366c-4.777-3.263-8.367-10.846-8.871-19.988-.693-12.715,4.855-23.628,12.388-24.374a8.573,8.573,0,0,1,4.564.862c4.956,3.053,8.741,10.937,9.262,20.507a37.06,37.06,0,0,1-1.324,12.305c-2.072,6.644-6.079,11.323-10.916,11.8,1.567-.155,8.676-.335,11.084-.573,7.49-.742,13.019-11.439,12.328-24.078-.65-11.848-6.5-20.912-13.409-21.405-.451-.033-11.448-.02-11.556-.02a8.323,8.323,0,0,0-.967.031c-3.223.32-6.078,2.512-8.241,5.9l-4.912-68.373c5.472-.172,13.854-.411,15.091-.533,5.6-.554,9.377-8.624,8.444-18.023-.872-8.815-5.575-15.666-10.773-16.032-.235-.015-9.073.147-15.223.314l-.3-4.221,115.668-50.387L93.89,260.189ZM84.3,282.06a20.725,20.725,0,0,0-.141,2.471l-31.049,9.482Zm-24.8,27.6c-4.7.466-9.017-4.23-9.638-10.486a15.244,15.244,0,0,1-.046-2.379,22.49,22.49,0,0,0-8.515-1.485c1.643-1.106,6.929-1.276,8.967-1.3.036-.129.064-.26.1-.384-1.3-.589-4.479-1.643-10.565-1.527,3-1.391,9.575-1.47,11.934-1.451.055-.088.114-.175.174-.261a28.5,28.5,0,0,0-10.775-1.782,21.8,21.8,0,0,1,12.423-.021A6.821,6.821,0,0,1,57.254,287a6.49,6.49,0,0,1,2.417.237c-.778.279-1.244.444-1.308.46-4.194,1.03-7.028,5.234-6.485,10.9.58,6.021,4.636,10.115,9.383,10.631A6.468,6.468,0,0,1,59.5,309.665Zm-5.22-13.791,29.88-11.148c0,.308,0,.615.021.927.028.515.077,1.021.14,1.517Zm38.464-23.759c.014,0,.027.011.046.014l-.146-.034C92.679,272.1,92.718,272.106,92.744,272.114Zm390.767,35.562L470.747,178.9c-1.287-12.974-13.153-24.527-26.366-25.672L354.214,145.4c-11.006-.957-19.589,5.61-21.418,15.323-3.313,6.659-10.157,20.426-15.834,31.918l-.013-.119-.334.821c-3.007,6.088-5.653,11.469-7.218,14.712-5.651,11.712-4.236,16.034-4.236,16.034s.54,5.434,1.3,13.133a24.376,24.376,0,0,0-2.668,3.034,48.954,48.954,0,0,0-7.531-6.519c.163.112.328.21.49.327l-1.587-16.007-81.08-5.387,18.1,182.645,80.108-4.438-7.206-72.7c-.057.049-.117.091-.176.138a40.856,40.856,0,0,0,12.37-18.72,4.594,4.594,0,0,0,.472.31l36.854,21.458a29.4,29.4,0,0,0,17.9,8.664l89.306-.849C475.038,330.325,484.8,320.649,483.511,307.676Zm-176.7-66.912.338,3.419c-.458-.585-.917-1.171-1.394-1.733Q306.259,241.578,306.816,240.764Zm-2.427,4.381a11.127,11.127,0,0,1,1.164-.271,12.872,12.872,0,0,1,1.617-.094.3.3,0,0,1,.042,0l.188,1.886a33.226,33.226,0,0,0-2.233,16.015,37.963,37.963,0,0,0,5.431,16.252l.62,6.253h-.005a39.89,39.89,0,0,1-9.449-22.343A35.336,35.336,0,0,1,304.389,245.145ZM290.97,220.686a3.055,3.055,0,0,1,2.646,2.957,3.166,3.166,0,0,1-.334,1.806l-2.987-4.624A1.838,1.838,0,0,1,290.97,220.686Zm-1.513.773,3.1,4.805a1.826,1.826,0,0,1-1.019.316,3.06,3.06,0,0,1-2.648-2.958A3.026,3.026,0,0,1,289.457,221.459Zm11.9,22.759a30.617,30.617,0,0,0-2.259,6.016c-3.243,3.272-5.053,8.522-4.48,14.469.673,7.014,4.475,13.092,9.444,16.1a36.547,36.547,0,0,0,4.081,5.362c-.974.314-2.007.646-3.048.979a16.864,16.864,0,0,1-5.73-2.1,22.976,22.976,0,0,1,.86,3.384c.155.03.31.076.468.1-.151.046-.291.091-.437.134.087.52.165,1.043.216,1.575.889,9.247-3.864,16.868-10.884,18.09-.257.044-2.33.708-4.85,1.518-8.555-.9-15.963-9.086-16.923-19.075-1.02-10.616,5.628-19.249,14.851-19.282.386,0,.773.028,1.158.059.029.1.048.206.08.305.035,0,.07-.007.107-.007a12.905,12.905,0,0,1,5.22,1.184,27.625,27.625,0,0,1-1.834-6.568c-1.116-7.63,1.238-14.28,5.672-17.881,2.151-.677,4.694-1.472,6.936-2.156-6.959-7.723-15.975-12.516-25.428-12.558-12.411-.055-22.5,8.1-27.361,20.36,4.8-13.329,15.433-22.3,28.632-22.24C285.285,232.033,294.294,236.684,301.36,244.218Zm-15.817,9.993a14.749,14.749,0,0,1-2.8,10.633,25.192,25.192,0,0,0,.262,3.01,27.051,27.051,0,0,0,.813,3.675,14.653,14.653,0,0,0-1.716-.1,14.1,14.1,0,0,0-4.473.751,24.784,24.784,0,0,1-.4-2.545c-.043-.439-.059-.871-.078-1.3-.04.007-.077.022-.119.027-.267.047-3.062.956-5.847,1.846-6.074-.969-11.577-7.238-12.684-14.823-.8-5.472.889-10.237,4.065-12.819,3.409-1.069,8.192-2.565,8.945-2.659a9.393,9.393,0,0,1,1.159-.067c5.573.023,10.691,4.989,12.374,11.555a12.4,12.4,0,0,1,3.227-1.319c.07-.016.22-.059.419-.12a14.634,14.634,0,0,0-3.221,3.736C285.491,253.861,285.523,254.033,285.542,254.212Zm-30.193,2.162c1.108,7.582,6.607,13.848,12.678,14.821-1.286.4-2.286.69-2.583.733a8.926,8.926,0,0,1-1.369.095c-6.346-.027-12.108-6.465-12.869-14.378-.673-6.967,2.756-12.752,7.917-14.02.049-.012.16-.044.3-.088C256.241,246.119,254.546,250.893,255.349,256.374ZM266.689,276.7c.063-.015.2-.056.385-.11-4.075,3.3-6.239,9.408-5.21,16.415,1.416,9.7,8.45,17.713,16.214,18.957-1.651.51-2.922.882-3.306.939a11.991,11.991,0,0,1-1.748.122c-8.114-.037-15.486-8.27-16.461-18.391C255.706,285.722,260.088,278.321,266.689,276.7Zm-.8,15.032c-1.024-7,1.136-13.093,5.2-16.393l2.007-.63c-4.177,3.486-6.581,9.406-5.935,16.118.965,10.055,8.421,18.287,17.028,19.2l-2.078.665C274.346,309.45,267.306,301.433,265.889,291.733Zm5.453-64.806c.534-.066,1.073-.107,1.617-.147-20.63,1.452-35.03,22.87-32.5,49.168,2.628,27.3,22.507,49.509,44.4,49.6a31.024,31.024,0,0,0,5.862-.532c-.112.02-.221.054-.333.073-1.107.193-6.474,1.4-11.288,2.422-21.9-3.531-40.558-25.148-43.076-51.337-1.927-20.033,6.111-37.423,19.486-46.118C260.936,228.873,268.647,227.258,271.341,226.927Zm-50.4-9.834c1.469.005,2.8,1.494,2.976,3.324a3.587,3.587,0,0,1-.378,2.029l-3.356-5.2A2.043,2.043,0,0,1,220.94,217.094Zm-2.336,3.3a3.4,3.4,0,0,1,.634-2.433l3.487,5.4a2.051,2.051,0,0,1-1.146.354C220.111,223.711,218.78,222.222,218.6,220.394Zm4.226,59.248c-2.315-24.034,9.509-44,27.31-48.367.468-.115,1.394-.329,2.614-.6-12.782,8.978-20.364,26.062-18.482,45.653,2.515,26.172,21.05,47.818,42.893,51.6-2.2.457-4.119.833-5.218,1a31.521,31.521,0,0,1-4.716.33C245.338,329.151,225.458,306.941,222.83,279.642Zm16.126,112.2c-1.467-.007-2.8-1.495-2.975-3.324a3.407,3.407,0,0,1,.634-2.431l3.486,5.4A2.037,2.037,0,0,1,238.956,391.84Zm1.962-1.27-3.356-5.2a2.046,2.046,0,0,1,.757-.157c1.468.007,2.8,1.5,2.976,3.324A3.59,3.59,0,0,1,240.917,390.57Zm50.537-38.493c-2.3,3.846-13.48,22.266-13.48,22.266s-1.43,2.8-3.005,3-4.174-2.479-4.174-2.479-12.27-14.511-19.858-23.154,2.721-6.668,2.721-6.668l35.026,1.477S294.986,346.215,291.454,352.076Zm15.2,30.476a3.06,3.06,0,0,1,2.647,2.958,3.189,3.189,0,0,1-.334,1.806l-2.99-4.624A1.854,1.854,0,0,1,306.659,382.552Zm-1.515.773,3.1,4.806a1.794,1.794,0,0,1-1.018.315,3.052,3.052,0,0,1-2.646-2.956A3.018,3.018,0,0,1,305.144,383.325Zm-20.791-63.07a31.208,31.208,0,0,1-13.092-3.047,30.038,30.038,0,0,0,11.582,2.453c14.806.064,26.287-11.548,29.56-27.885a20.479,20.479,0,0,0,1.44,3.566C309.566,310.135,298.414,320.316,284.353,320.256Zm38.506-20.112c-11.176-5.145-10.088-15.537-10.088-15.537s-5.01-50.53-5.778-58.259a26.4,26.4,0,0,1,2.116-12.194l9.724,73.916-7.364-78.7,3.141-6,11.62,88.3-8.773-93.736,5.269-10.064,14.785,112.366L326.348,180.96l6.365-12.159,13.437,135.553a25.53,25.53,0,0,0,1.95,7.461C341.8,308.9,330.595,303.7,322.859,300.144Zm51.305,25.569c-12.6-1.1-23.91-12.11-25.138-24.479L336.038,170.181c-1.227-12.371,8.08-21.6,20.68-20.5l85.971,7.459c.755.065,1.5.171,2.246.3.305.056.6.137.9.2.43.093.857.183,1.28.3.393.11.779.241,1.166.37.315.1.632.2.942.31.448.168.893.352,1.335.543.23.1.459.192.686.3.495.229.981.474,1.459.73.159.084.316.167.47.253.527.293,1.041.6,1.55.927.095.061.189.122.283.184.546.358,1.082.732,1.6,1.126.046.034.086.066.131.1.551.426,1.1.865,1.621,1.325v0a26.816,26.816,0,0,0-12.138-4.3l-85.974-7.457c-12.6-1.095-21.9,8.131-20.679,20.5l5.561,56.1,7.045.612a11.958,11.958,0,0,1,10.5,10.222l5.082,51.285a7.968,7.968,0,0,1-1.144,5.133c15.04,4.782,73.013,23.212,90.58,28.715Zm-.605-80.9,88.535-46.251-89.986,35.418L457.531,186.9l-92.316,42.461,99.076-58.151a25.363,25.363,0,0,1,3.535,10.406l4.258,42.964ZM283.431,352.075l-24.677-1.042s-7.263-1.392-1.918,4.7,13.991,16.312,13.991,16.312,1.829,1.885,2.938,1.747,2.118-2.112,2.118-2.112,7.875-12.975,9.5-15.687C287.868,351.862,283.431,352.075,283.431,352.075Zm63.347-106.568,3.427,34.572a32.853,32.853,0,0,0,2.732-17.185A37.8,37.8,0,0,0,346.778,245.507ZM178.794,256.413c-.165-.009-.331-.008-.493-.009.212,0,.425,0,.636.019Zm-29.047,48.673c-.059.009-.12.022-.178.026.019,0,.04,0,.061,0,.334-.033,2.238-.123,2.836-.143a1.782,1.782,0,0,0,1.129-.489c1.459-1.288-.84-4.615-.84-4.615l-9.028-13.581a3.167,3.167,0,0,0-2.742-1.463c-.408.047-2.594.123-2.775.132a.553.553,0,0,0-.073.011,3.208,3.208,0,0,1,2.656,1.47l9.028,13.581s2.3,3.327.841,4.615a1.834,1.834,0,0,1-.886.448,2.328,2.328,0,0,1-1.5-.619c-2.782-2.833-11.829-13.693-11.829-13.693-.238-.483-2.693-2.557.106-5.056a4.812,4.812,0,0,1,.695-.516,4.315,4.315,0,0,0-1.14.751c-2.8,2.5-.54,4.753-.3,5.237l11.466,12.577S148.415,305.317,149.747,305.086Zm27.3,11.511c.049-.005.1,0,.151-.008,9.079-.9,15.743-14.442,14.877-30.244s-8.927-27.885-18.009-26.986a11.771,11.771,0,0,0-7.208,3.774,11.267,11.267,0,0,1,6.479-3.1c8.99-.892,16.97,11.067,17.827,26.712C192,302.031,185.723,315.175,177.049,316.6ZM114.2,377.448l-.048,0c-.051,0-.1,0-.158,0C114.058,377.444,114.126,377.444,114.2,377.448Zm2.851,31.031c.035,0,.076,0,.115-.007,6.808-.675,11.8-10.829,11.156-22.68s-6.7-20.911-13.5-20.238a8.828,8.828,0,0,0-5.4,2.831,8.459,8.459,0,0,1,4.859-2.325c6.74-.669,12.725,8.3,13.364,20.031C128.26,397.557,123.551,407.411,117.047,408.478Zm-9.922-20.271c.228,4.172,1.958,7.586,4.207,8.817-2.051-1.4-3.591-4.653-3.808-8.573-.3-5.453,2.084-10.134,5.313-10.457a3.727,3.727,0,0,1,2.156.465c2.067,1.388,3.621,4.646,3.837,8.588.3,5.454-2.083,10.135-5.312,10.454.673-.066.978-.029,2.006-.133,3.216-.318,5.581-4.972,5.284-10.392-.279-5.084-2.8-9.036-5.756-9.248a20.552,20.552,0,0,0-2.516.013l.138.01c-.078,0-.157-.007-.235,0C109.205,378.073,106.825,382.753,107.125,388.207Zm6.55-10.359c.021,0,.036.013.056.018-.1-.027-.2-.038-.3-.055A1.98,1.98,0,0,1,113.674,377.848Zm52.263-80.721c.524-.05.76-.024,1.562-.1,2.489-.247,4.319-3.854,4.093-8.054-.216-3.939-2.17-7-4.465-7.166a15.289,15.289,0,0,0-1.948.011h.029c-.035,0-.069,0-.107.005-2.5.249-4.344,3.876-4.113,8.1.176,3.231,1.516,5.877,3.259,6.83-1.591-1.085-2.783-3.606-2.951-6.643-.231-4.227,1.614-7.855,4.12-8.1a2.879,2.879,0,0,1,1.663.355c1.606,1.075,2.811,3.6,2.981,6.661C170.291,293.251,168.444,296.879,165.938,297.127Zm17.036,141.224c-.192-3.529-2.044-6.221-4.131-6.012a2.752,2.752,0,0,0-1.656.848l4,11.087A7.943,7.943,0,0,0,182.974,438.351Zm-7.563.75c.194,3.526,2.043,6.22,4.131,6.012a2.476,2.476,0,0,0,.963-.318l-3.915-10.861A8.814,8.814,0,0,0,175.411,439.1ZM111.1,380.944c.046,0,.092,0,.138,0H111.1Zm-.986,4.6-.028-.005a.034.034,0,0,1,.018,0Zm7.969,1.539c.267,4.858-1.728,9.035-4.486,9.487l.048,0c2.887-.286,5-4.588,4.729-9.612s-2.837-8.862-5.724-8.576a3.742,3.742,0,0,0-2.29,1.2,3.6,3.6,0,0,1,2.059-.986C115.271,378.314,117.805,382.114,118.079,387.086Zm62.455,38.483-.059-.006c-.068,0-.135,0-.206,0C180.359,425.561,180.446,425.561,180.534,425.569ZM169.626,267.43c-.032,0-.067,0-.1-.007-.113-.007-.23,0-.344-.007C169.33,267.419,169.48,267.419,169.626,267.43ZM181.634,257.3a62.911,62.911,0,0,0-7.914.043l.126.008c-.145.01-.288.008-.433.023-6.864.679-12.49,7.619-15.143,17.325a31.257,31.257,0,0,0-2.97,15.738,29.238,29.238,0,0,0,4.731,15.084c2.4,5.828,5.872,10.284,9.9,12.487a24.838,24.838,0,0,1-8.005-10.237,11.886,11.886,0,0,0,2.569,1.94c-4.481-3.06-7.849-10.174-8.317-18.744-.653-11.921,4.548-22.156,11.614-22.855a8.16,8.16,0,0,1,4.7,1.005c4.52,3.028,7.926,10.159,8.4,18.784.653,11.921-4.548,22.154-11.614,22.855,1.47-.147,2.132-.068,4.392-.291,7.024-.7,12.193-10.868,11.543-22.719C184.6,276.642,179.1,268,172.626,267.534a44.233,44.233,0,0,0-5.5.033c.021,0,.057,0,.085,0-.1.007-.2.005-.3.016a9.339,9.339,0,0,0-5.678,2.944c3.01-7.054,7.809-11.83,13.44-12.388a11.688,11.688,0,0,1,6.72,1.418c6.531,4.343,11.454,14.622,12.132,27.06.941,17.16-6.546,31.886-16.714,32.894,2.118-.21,3.071-.1,6.319-.417,10.111-1,17.551-15.643,16.616-32.7C198.873,270.409,190.951,257.97,181.634,257.3ZM169.62,267.8c.027.006.052.018.079.025-.082-.021-.165-.04-.246-.057C169.516,267.775,169.577,267.784,169.62,267.8Zm7.453-10.163c.088.015.174.03.235.046.036.008.07.026.108.035C177.3,257.682,177.187,257.66,177.073,257.633Zm-65.817,123.44a.1.1,0,0,0-.024-.01.518.518,0,0,0-.052-.009C111.2,381.059,111.232,381.066,111.256,381.072Z" transform="translate(366.14 2073.682)" fill="#062f50"/>
    <path id="Trazado_25406" data-name="Trazado 25406" d="M658.111-464.754,496.6,128.585l11.177,113.734L787.386,566.612l333.387-1.645,11.6-1029.866Z" transform="translate(210.383 2129.333)" fill="#1c1313"/>
    <path id="Trazado_25407" data-name="Trazado 25407" d="M682.3-465.484,496.6,128.41l11.177,113.734,316.072,325.2,290.361-.225,8.477-1032.426Z" transform="translate(210.383 2129.507)" fill="#124772"/>
    <path id="Trazado_25408" data-name="Trazado 25408" d="M721.05-465.328,498.14,138.9l11.634,98.578,401.145,329.7,409.217-.041V-465.333Z" transform="translate(209.864 2129.442)" fill="#c1f7f0"/>
    <path id="Trazado_25409" data-name="Trazado 25409" d="M639.787,362.954,627.023,234.175c-1.287-12.974-13.153-24.527-26.366-25.672l-78.7-6.828-1.921,3.891,78.933,6.848c.755.065,1.5.171,2.246.3.305.056.6.137.9.2.43.093.857.183,1.28.3.393.11.779.242,1.166.37.315.1.632.2.942.31.448.168.893.352,1.335.543.23.1.459.192.686.3.495.229.981.474,1.459.73.159.084.316.167.47.253.527.293,1.041.6,1.55.927.095.061.189.122.283.184q.819.536,1.6,1.126c.047.034.086.066.131.1.551.426,1.1.865,1.621,1.325v0a26.816,26.816,0,0,0-12.138-4.3l-83.591-7.251-20.774,42.1,3.372,34.308,6.944.6a11.958,11.958,0,0,1,10.5,10.222l5.082,51.285a7.968,7.968,0,0,1-1.144,5.133c15.04,4.782,73.013,23.212,90.58,28.715l-70.155.666,4.669,4.256,70.106-.667C631.314,385.6,641.074,375.927,639.787,362.954ZM529.835,300.087l88.535-46.251-89.986,35.418,85.423-47.078-92.316,42.461,99.076-58.151a25.362,25.362,0,0,1,3.535,10.406l4.258,42.964Zm-26.683.857,3.372,34.31a32.878,32.878,0,0,0,2.688-17.083A37.793,37.793,0,0,0,503.153,300.944Z" transform="translate(209.864 2018.404)" fill="#191919"/>
    <text id="DEPARTAMENTO_DE_PRODUCCÓN" data-name="DEPARTAMENTO DE 
PRODUCCÓN" transform="translate(435 1805)" fill="#f0a228" font-size="35" font-family="Helvetica-Bold, Helvetica" font-weight="700"><tspan x="0" y="0">DEPARTAMENTO DE </tspan><tspan x="0" y="42">PRODUCCÓN</tspan></text>
    <g id="Grupo_9647" data-name="Grupo 9647" transform="translate(-173.911 1145)">
      <circle id="Elipse_619" data-name="Elipse 619" cx="113.5" cy="113.5" r="113.5" transform="translate(869.911 752)" fill="#f0a228"/>
      <g id="Elipse_620" data-name="Elipse 620" transform="translate(859.911 742)" fill="none" stroke="#c1f7f0" stroke-width="1" stroke-dasharray="6">
        <circle cx="123.5" cy="123.5" r="123.5" stroke="none"/>
        <circle cx="123.5" cy="123.5" r="123" fill="none"/>
      </g>
      <g id="Grupo_9648" data-name="Grupo 9648" transform="translate(908.575 790.664)">
        <path id="Trazado_25394" data-name="Trazado 25394" d="M64.536,22.2a42.336,42.336,0,1,0,42.336,42.336A42.342,42.342,0,0,0,64.536,22.2Zm15.99,53.452A10.854,10.854,0,0,1,69.713,86.465H68.19v3.5a3.655,3.655,0,0,1-7.31,0v-3.5H59.358a10.769,10.769,0,0,1-10.051-6.7,3.62,3.62,0,1,1,6.7-2.741,3.636,3.636,0,0,0,3.35,2.284H69.713a3.706,3.706,0,0,0,3.655-3.655V71.845a3.706,3.706,0,0,0-3.655-3.655H59.358A10.854,10.854,0,0,1,48.546,57.378V53.571A10.854,10.854,0,0,1,59.358,42.759h1.523v-3.5a3.655,3.655,0,0,1,7.31,0v3.5h1.523a10.755,10.755,0,0,1,10.051,6.853A3.663,3.663,0,0,1,72.911,52.2a3.487,3.487,0,0,0-3.35-2.284H59.206a3.608,3.608,0,0,0-3.655,3.655v3.807a3.608,3.608,0,0,0,3.655,3.655H69.561A10.854,10.854,0,0,1,80.373,71.845v3.807Z" transform="translate(10.3 10.3)" fill="#01223d"/>
        <path id="Trazado_25395" data-name="Trazado 25395" d="M52.091,23.363a6.109,6.109,0,0,0,6.091-6.091V8.591A6.091,6.091,0,0,0,46,8.591v8.68A6.109,6.109,0,0,0,52.091,23.363Z" transform="translate(22.744)" fill="#01223d"/>
        <path id="Trazado_25396" data-name="Trazado 25396" d="M78.752,33.487a6.013,6.013,0,0,0,4.264-1.827l6.244-6.244a6.03,6.03,0,1,0-8.528-8.528l-6.244,6.244a6.163,6.163,0,0,0,0,8.528A6.013,6.013,0,0,0,78.752,33.487Z" transform="translate(36.744 6.627)" fill="#01223d"/>
        <path id="Trazado_25397" data-name="Trazado 25397" d="M98.572,46h-8.68a6.091,6.091,0,0,0,0,12.183h8.68a6.091,6.091,0,0,0,0-12.183Z" transform="translate(42.509 22.744)" fill="#01223d"/>
        <path id="Trazado_25398" data-name="Trazado 25398" d="M83.016,74.508a6.02,6.02,0,0,0-8.528,0,6.163,6.163,0,0,0,0,8.528l6.244,6.244a5.888,5.888,0,0,0,8.528,0,6.163,6.163,0,0,0,0-8.528Z" transform="translate(36.744 36.724)" fill="#01223d"/>
        <path id="Trazado_25399" data-name="Trazado 25399" d="M52.091,83.8A6.109,6.109,0,0,0,46,89.891v8.68a6.091,6.091,0,0,0,12.183,0v-8.68A6.109,6.109,0,0,0,52.091,83.8Z" transform="translate(22.744 42.509)" fill="#01223d"/>
        <path id="Trazado_25400" data-name="Trazado 25400" d="M23.232,74.488l-6.244,6.244a6.163,6.163,0,0,0,0,8.528,5.888,5.888,0,0,0,8.528,0l6.244-6.244a6.03,6.03,0,0,0-8.528-8.528Z" transform="translate(6.68 36.744)" fill="#01223d"/>
        <path id="Trazado_25401" data-name="Trazado 25401" d="M17.272,46H8.591a6.091,6.091,0,0,0,0,12.183h8.68a6.091,6.091,0,1,0,0-12.183Z" transform="translate(0 22.744)" fill="#01223d"/>
        <path id="Trazado_25402" data-name="Trazado 25402" d="M23.232,31.76a5.888,5.888,0,0,0,8.528,0,6.163,6.163,0,0,0,0-8.528l-6.244-6.244a6.03,6.03,0,1,0-8.528,8.528Z" transform="translate(6.68 6.68)" fill="#01223d"/>
      </g>
    </g>
    <rect id="Rectángulo_2471" data-name="Rectángulo 2471" width="526" height="124" rx="15" transform="translate(967 1729)" fill="#b7f0e9"/>
    <rect id="Rectángulo_2472" data-name="Rectángulo 2472" width="526" height="147" rx="15" transform="translate(967 1864)" fill="#b7f0e9"/>
    <rect id="Rectángulo_2473" data-name="Rectángulo 2473" width="526" height="111" rx="15" transform="translate(967 2023)" fill="#b7f0e9"/>
    <rect id="Rectángulo_2474" data-name="Rectángulo 2474" width="526" height="138" rx="15" transform="translate(967 2148)" fill="#b7f0e9"/>
    <rect id="Rectángulo_2475" data-name="Rectángulo 2475" width="526" height="117" rx="15" transform="translate(967 2301)" fill="#b7f0e9"/>
    <rect id="Rectángulo_2476" data-name="Rectángulo 2476" width="526" height="117" rx="15" transform="translate(967 2436)" fill="#b7f0e9"/>
    <text id="Jefe_de_producción:_" data-name="Jefe de producción: " transform="translate(1012 2178)" fill="#00223d" font-size="22" font-family="Helvetica-Bold, Helvetica" font-weight="700"><tspan x="0" y="0">Jefe de producción: </tspan></text>
    <text id="Coordina_toda_la_logística_en_el_set_reconoce_y_verifica_todas_las_locaciones_para_prever_cualquier_necesidad." data-name="Coordina toda la logística en el set, reconoce y verifica todas las locaciones para prever cualquier necesidad." transform="translate(1012 2191)" fill="#00223d" font-size="18" font-family="Helvetica"><tspan x="0" y="14">Coordina toda la logística en el set, reconoce y verifica </tspan><tspan x="0" y="44">todas las locaciones para prever cualquier necesidad.</tspan></text>
    <text id="Coordinador_de_producción:_" data-name="Coordinador de producción: " transform="translate(1012 2335)" fill="#00223d" font-size="22" font-family="Helvetica-Bold, Helvetica" font-weight="700"><tspan x="0" y="0">Coordinador de producción: </tspan></text>
    <text id="Ejecuta_las_tareas_administrativas_y_la_organización_de_la_oficina_durante_toda_la_producción." data-name="Ejecuta las tareas administrativas y la organización de la oficina durante toda la producción." transform="translate(1012 2347)" fill="#00223d" font-size="18" font-family="Helvetica"><tspan x="0" y="14">Ejecuta las tareas administrativas y la organización </tspan><tspan x="0" y="44">de la oficina durante toda la producción.</tspan></text>
    <text id="Asistente_de_producción:" data-name="Asistente de producción:" transform="translate(1012 2471)" fill="#00223d" font-size="22" font-family="Helvetica-Bold, Helvetica" font-weight="700"><tspan x="0" y="0">Asistente de producción:</tspan></text>
    <text id="Apoya_al_jefe_de_producción_en_actividades_de_organización_alquileres_compras_y_alimentación." data-name="Apoya al jefe de producción en actividades de organización, alquileres, compras y alimentación." transform="translate(1012 2484)" fill="#00223d" font-size="18" font-family="Helvetica"><tspan x="0" y="14">Apoya al jefe de producción en actividades de </tspan><tspan x="0" y="44">organización, alquileres, compras y alimentación.</tspan></text>
    <text id="Productor_ejecutivo:_" data-name="Productor ejecutivo: " transform="translate(1012 1899)" fill="#00223d" font-size="22" font-family="Helvetica-Bold, Helvetica" font-weight="700"><tspan x="0" y="0">Productor ejecutivo: </tspan></text>
    <text id="Es_quien_busca_el_dinero_determina_cómo_se_debe_ejecutar_y_cuándo_lo_deben_devolver._Evalúa_si_el_proyecto_es_rentable." data-name="Es quien busca el dinero, determina cómo se debe ejecutar y cuándo lo deben devolver. Evalúa si el proyecto es rentable." transform="translate(1012 1911)" fill="#00223d" font-size="18" font-family="Helvetica"><tspan x="0" y="14">Es quien busca el dinero, determina cómo se debe </tspan><tspan x="0" y="44">ejecutar y cuándo lo deben devolver. Evalúa si el </tspan><tspan x="0" y="74">proyecto es rentable.</tspan></text>
    <text id="Coproductor:_" data-name="Coproductor: " transform="translate(1012 2053)" fill="#00223d" font-size="22" font-family="Helvetica-Bold, Helvetica" font-weight="700"><tspan x="0" y="0">Coproductor: </tspan></text>
    <text id="Quien_se_asocia_al_productor_con_el_fin_de_buscar_financiación_para_la_realización_del_proyecto." data-name="Quien se asocia al productor con el fin de buscar financiación para la realización del proyecto." transform="translate(1012 2068)" fill="#00223d" font-size="18" font-family="Helvetica"><tspan x="0" y="14">Quien se asocia al productor con el fin de buscar </tspan><tspan x="0" y="44">financiación para la realización del proyecto.</tspan></text>
    <text id="Productor:" transform="translate(1012 1773)" fill="#00223d" font-size="22" font-family="Helvetica-Bold, Helvetica" font-weight="700"><tspan x="0" y="0">Productor:</tspan></text>
    <text id="Detenta_los_derechos_de_explotación_de_la_obra_responsable_de_la_estructura_de_producción._" data-name="Detenta los derechos de explotación de la obra, responsable de la estructura de producción.
" transform="translate(1012 1784)" fill="#00223d" font-size="18" font-family="Helvetica"><tspan x="0" y="14">Detenta los derechos de explotación de la obra, </tspan><tspan x="0" y="44">responsable de la estructura de producción.</tspan></text>
  </g>
</svg>
